# xmcd
#
# Track frame offsets:
# 150
# 22644
# 36703
# 53328
# 67794
# 82522
# 102673
# 117968
# 132393
# 144943
# 168037
# 180363
#
# Disc length: 2699 seconds
#
#
# Revision: 0
# Processed by: cddbd v1.5.1PL2 Copyright (c) Steve Scherf et al.
# Submitted via: FreeRIP 2.90 
#
DISCID=870a890c
DTITLE=The Tennessee Boltsmokers - Hydroradio
DYEAR=2006
DGENRE=Bluegrass
TTITLE0=Hydroradio/Loving you
TTITLE1=Smoking gun
TTITLE2=Nickel and dime blues
TTITLE3=Gone too long
TTITLE4=Turn this thing around
TTITLE5=The light is still on
TTITLE6=Vicksburg
TTITLE7=Cotton farmer
TTITLE8=Shotgun wedding
TTITLE9=Angeline
TTITLE10=Miles and miles
TTITLE11=Hit the road
EXTD=
EXTT0=
EXTT1=
EXTT2=
EXTT3=
EXTT4=
EXTT5=
EXTT6=
EXTT7=
EXTT8=
EXTT9=
EXTT10=
EXTT11=
PLAYORDER=
